<mxfile host="app.diagrams.net" modified="2022-05-30T02:09:36.468Z" agent="5.0 (Windows NT 10.0; Win64; x64) AppleWebKit/537.36 (KHTML, like Gecko) Chrome/101.0.4951.67 Safari/537.36" etag="YPeUtutq21XDAwWZlBE_" version="18.1.3" type="github">
  <diagram id="6b-AIb4fZ0_63Wng58pE" name="第 1 页">
    <mxGraphModel dx="1038" dy="615" grid="1" gridSize="10" guides="1" tooltips="1" connect="1" arrows="1" fold="1" page="1" pageScale="1" pageWidth="827" pageHeight="1169" math="0" shadow="0">
      <root>
        <mxCell id="0" />
        <mxCell id="1" parent="0" />
        <mxCell id="x5vJ8b68p-mT0S8FOSGd-1" value="" style="rounded=0;whiteSpace=wrap;html=1;strokeWidth=2;dashed=1;fillColor=none;" vertex="1" parent="1">
          <mxGeometry x="80" y="230" width="830" height="250" as="geometry" />
        </mxCell>
        <mxCell id="wJLCeE7b_7H6G05FjrpO-7" style="edgeStyle=orthogonalEdgeStyle;rounded=0;orthogonalLoop=1;jettySize=auto;html=1;entryX=0.5;entryY=0;entryDx=0;entryDy=0;strokeWidth=2;" parent="1" source="wJLCeE7b_7H6G05FjrpO-1" target="wJLCeE7b_7H6G05FjrpO-3" edge="1">
          <mxGeometry relative="1" as="geometry" />
        </mxCell>
        <mxCell id="wJLCeE7b_7H6G05FjrpO-1" value="JWT" style="ellipse;whiteSpace=wrap;html=1;strokeWidth=2;" parent="1" vertex="1">
          <mxGeometry x="350" y="20" width="120" height="80" as="geometry" />
        </mxCell>
        <mxCell id="wJLCeE7b_7H6G05FjrpO-8" style="edgeStyle=orthogonalEdgeStyle;rounded=0;orthogonalLoop=1;jettySize=auto;html=1;strokeWidth=2;" parent="1" source="wJLCeE7b_7H6G05FjrpO-3" target="wJLCeE7b_7H6G05FjrpO-5" edge="1">
          <mxGeometry relative="1" as="geometry" />
        </mxCell>
        <mxCell id="wJLCeE7b_7H6G05FjrpO-9" style="edgeStyle=orthogonalEdgeStyle;rounded=0;orthogonalLoop=1;jettySize=auto;html=1;exitX=0.5;exitY=1;exitDx=0;exitDy=0;strokeWidth=2;" parent="1" source="wJLCeE7b_7H6G05FjrpO-3" target="wJLCeE7b_7H6G05FjrpO-4" edge="1">
          <mxGeometry relative="1" as="geometry">
            <Array as="points">
              <mxPoint x="410" y="250" />
              <mxPoint x="210" y="250" />
            </Array>
          </mxGeometry>
        </mxCell>
        <mxCell id="wJLCeE7b_7H6G05FjrpO-10" style="edgeStyle=orthogonalEdgeStyle;rounded=0;orthogonalLoop=1;jettySize=auto;html=1;entryX=0.5;entryY=0;entryDx=0;entryDy=0;exitX=0.5;exitY=1;exitDx=0;exitDy=0;strokeWidth=2;" parent="1" source="wJLCeE7b_7H6G05FjrpO-3" target="wJLCeE7b_7H6G05FjrpO-6" edge="1">
          <mxGeometry relative="1" as="geometry">
            <Array as="points">
              <mxPoint x="410" y="250" />
              <mxPoint x="820" y="250" />
            </Array>
          </mxGeometry>
        </mxCell>
        <mxCell id="wJLCeE7b_7H6G05FjrpO-3" value="token" style="rounded=1;whiteSpace=wrap;html=1;strokeWidth=2;fillColor=#d5e8d4;strokeColor=#82b366;" parent="1" vertex="1">
          <mxGeometry x="350" y="150" width="120" height="60" as="geometry" />
        </mxCell>
        <mxCell id="wJLCeE7b_7H6G05FjrpO-18" style="edgeStyle=orthogonalEdgeStyle;rounded=0;orthogonalLoop=1;jettySize=auto;html=1;entryX=0.5;entryY=0;entryDx=0;entryDy=0;fontSize=15;strokeWidth=2;" parent="1" source="wJLCeE7b_7H6G05FjrpO-4" target="wJLCeE7b_7H6G05FjrpO-16" edge="1">
          <mxGeometry relative="1" as="geometry" />
        </mxCell>
        <mxCell id="wJLCeE7b_7H6G05FjrpO-4" value="header" style="rounded=0;whiteSpace=wrap;html=1;strokeWidth=2;" parent="1" vertex="1">
          <mxGeometry x="150" y="280" width="120" height="60" as="geometry" />
        </mxCell>
        <mxCell id="wJLCeE7b_7H6G05FjrpO-23" style="edgeStyle=orthogonalEdgeStyle;rounded=0;orthogonalLoop=1;jettySize=auto;html=1;entryX=0.5;entryY=0;entryDx=0;entryDy=0;fontSize=15;strokeWidth=2;" parent="1" source="wJLCeE7b_7H6G05FjrpO-5" target="wJLCeE7b_7H6G05FjrpO-22" edge="1">
          <mxGeometry relative="1" as="geometry" />
        </mxCell>
        <mxCell id="wJLCeE7b_7H6G05FjrpO-5" value="payload" style="rounded=0;whiteSpace=wrap;html=1;strokeWidth=2;" parent="1" vertex="1">
          <mxGeometry x="350" y="280" width="120" height="60" as="geometry" />
        </mxCell>
        <mxCell id="wJLCeE7b_7H6G05FjrpO-25" style="edgeStyle=orthogonalEdgeStyle;rounded=0;orthogonalLoop=1;jettySize=auto;html=1;entryX=0.542;entryY=0.03;entryDx=0;entryDy=0;entryPerimeter=0;fontSize=15;strokeWidth=2;" parent="1" source="wJLCeE7b_7H6G05FjrpO-6" target="wJLCeE7b_7H6G05FjrpO-24" edge="1">
          <mxGeometry relative="1" as="geometry">
            <Array as="points">
              <mxPoint x="812" y="370" />
              <mxPoint x="812" y="370" />
            </Array>
          </mxGeometry>
        </mxCell>
        <mxCell id="wJLCeE7b_7H6G05FjrpO-6" value="&lt;span style=&quot;color: rgb(51, 51, 51); font-family: -apple-system, &amp;quot;SF UI Text&amp;quot;, Arial, &amp;quot;PingFang SC&amp;quot;, &amp;quot;Hiragino Sans GB&amp;quot;, &amp;quot;Microsoft YaHei&amp;quot;, &amp;quot;WenQuanYi Micro Hei&amp;quot;, sans-serif, SimHei, SimSun; font-size: 16px; text-align: left; background-color: rgb(255, 255, 255);&quot;&gt;signature&lt;/span&gt;" style="rounded=0;whiteSpace=wrap;html=1;strokeWidth=2;" parent="1" vertex="1">
          <mxGeometry x="760" y="290" width="120" height="60" as="geometry" />
        </mxCell>
        <mxCell id="wJLCeE7b_7H6G05FjrpO-11" value="&lt;font style=&quot;font-size: 15px;&quot;&gt;base64加密相当于明文加密&lt;/font&gt;" style="text;html=1;strokeColor=none;fillColor=none;align=left;verticalAlign=middle;whiteSpace=wrap;rounded=0;labelBackgroundColor=#FFCE9F;" parent="1" vertex="1">
          <mxGeometry x="110" y="180" width="100" height="30" as="geometry" />
        </mxCell>
        <mxCell id="wJLCeE7b_7H6G05FjrpO-16" value="typ：声明类型&lt;br&gt;alg：加密算法" style="rounded=1;whiteSpace=wrap;html=1;labelBackgroundColor=none;fontSize=15;strokeWidth=2;" parent="1" vertex="1">
          <mxGeometry x="150" y="525" width="120" height="60" as="geometry" />
        </mxCell>
        <mxCell id="wJLCeE7b_7H6G05FjrpO-22" value="&lt;span style=&quot;color: rgb(77, 77, 77); font-family: -apple-system, &amp;quot;SF UI Text&amp;quot;, Arial, &amp;quot;PingFang SC&amp;quot;, &amp;quot;Hiragino Sans GB&amp;quot;, &amp;quot;Microsoft YaHei&amp;quot;, &amp;quot;WenQuanYi Micro Hei&amp;quot;, sans-serif, SimHei, SimSun; font-size: 16px; text-align: start; background-color: rgb(255, 255, 255);&quot;&gt;Payload 里面是 Token 的具体内容&lt;/span&gt;" style="rounded=1;whiteSpace=wrap;html=1;labelBackgroundColor=none;fontSize=15;strokeWidth=2;" parent="1" vertex="1">
          <mxGeometry x="350" y="525" width="120" height="60" as="geometry" />
        </mxCell>
        <mxCell id="wJLCeE7b_7H6G05FjrpO-24" value="&lt;span style=&quot;color: rgb(77, 77, 77); font-family: -apple-system, &amp;quot;SF UI Text&amp;quot;, Arial, &amp;quot;PingFang SC&amp;quot;, &amp;quot;Hiragino Sans GB&amp;quot;, &amp;quot;Microsoft YaHei&amp;quot;, &amp;quot;WenQuanYi Micro Hei&amp;quot;, sans-serif, SimHei, SimSun; font-size: 16px; text-align: start; background-color: rgb(255, 255, 255);&quot;&gt;&amp;nbsp;Base64 编码的header。&lt;/span&gt;&lt;br style=&quot;box-sizing: border-box; outline: 0px; overflow-wrap: break-word; color: rgb(77, 77, 77); font-family: -apple-system, &amp;quot;SF UI Text&amp;quot;, Arial, &amp;quot;PingFang SC&amp;quot;, &amp;quot;Hiragino Sans GB&amp;quot;, &amp;quot;Microsoft YaHei&amp;quot;, &amp;quot;WenQuanYi Micro Hei&amp;quot;, sans-serif, SimHei, SimSun; font-size: 16px; text-align: start; background-color: rgb(255, 255, 255);&quot;&gt;&lt;span style=&quot;color: rgb(77, 77, 77); font-family: -apple-system, &amp;quot;SF UI Text&amp;quot;, Arial, &amp;quot;PingFang SC&amp;quot;, &amp;quot;Hiragino Sans GB&amp;quot;, &amp;quot;Microsoft YaHei&amp;quot;, &amp;quot;WenQuanYi Micro Hei&amp;quot;, sans-serif, SimHei, SimSun; font-size: 16px; text-align: start; background-color: rgb(255, 255, 255);&quot;&gt;&amp;nbsp; &amp;nbsp; Base64 编码的payload。&lt;/span&gt;&lt;br style=&quot;box-sizing: border-box; outline: 0px; overflow-wrap: break-word; color: rgb(77, 77, 77); font-family: -apple-system, &amp;quot;SF UI Text&amp;quot;, Arial, &amp;quot;PingFang SC&amp;quot;, &amp;quot;Hiragino Sans GB&amp;quot;, &amp;quot;Microsoft YaHei&amp;quot;, &amp;quot;WenQuanYi Micro Hei&amp;quot;, sans-serif, SimHei, SimSun; font-size: 16px; text-align: start; background-color: rgb(255, 255, 255);&quot;&gt;&lt;span style=&quot;color: rgb(77, 77, 77); font-family: -apple-system, &amp;quot;SF UI Text&amp;quot;, Arial, &amp;quot;PingFang SC&amp;quot;, &amp;quot;Hiragino Sans GB&amp;quot;, &amp;quot;Microsoft YaHei&amp;quot;, &amp;quot;WenQuanYi Micro Hei&amp;quot;, sans-serif, SimHei, SimSun; font-size: 16px; text-align: start; background-color: rgb(255, 255, 255);&quot;&gt;&amp;nbsp; &amp;nbsp; 再用加密算法加密一下，加密的时候要放进去一个 Secret ，这个相当于是一个密码，&lt;/span&gt;&lt;span style=&quot;box-sizing: border-box; outline: 0px; margin: 0px; padding: 0px; overflow-wrap: break-word; font-family: -apple-system, &amp;quot;SF UI Text&amp;quot;, Arial, &amp;quot;PingFang SC&amp;quot;, &amp;quot;Hiragino Sans GB&amp;quot;, &amp;quot;Microsoft YaHei&amp;quot;, &amp;quot;WenQuanYi Micro Hei&amp;quot;, sans-serif, SimHei, SimSun; font-size: 16px; text-align: start; background-color: rgb(255, 255, 255); color: rgb(243, 59, 69);&quot;&gt;这个密码秘密地存储在服务端，不得泄露&lt;/span&gt;" style="rounded=1;whiteSpace=wrap;html=1;labelBackgroundColor=none;fontSize=15;strokeWidth=2;" parent="1" vertex="1">
          <mxGeometry x="540" y="510" width="520" height="90" as="geometry" />
        </mxCell>
        <mxCell id="wJLCeE7b_7H6G05FjrpO-26" value="&lt;ul style=&quot;box-sizing: border-box; outline: 0px; margin: 0px 0px 24px; padding: 0px; list-style: none; font-size: 16px; overflow-wrap: break-word; color: rgb(51, 51, 51); font-family: -apple-system, &amp;quot;SF UI Text&amp;quot;, Arial, &amp;quot;PingFang SC&amp;quot;, &amp;quot;Hiragino Sans GB&amp;quot;, &amp;quot;Microsoft YaHei&amp;quot;, &amp;quot;WenQuanYi Micro Hei&amp;quot;, sans-serif, SimHei, SimSun; text-align: start; background-color: rgb(255, 255, 255);&quot;&gt;&lt;li style=&quot;box-sizing: border-box; outline: 0px; margin: 8px 0px 0px 32px; padding: 0px; list-style: disc; overflow-wrap: break-word;&quot;&gt;三部分组成，每一部分都进行字符串的转化&lt;/li&gt;&lt;li style=&quot;box-sizing: border-box; outline: 0px; margin: 8px 0px 0px 32px; padding: 0px; list-style: disc; overflow-wrap: break-word;&quot;&gt;&lt;span style=&quot;box-sizing: border-box; outline: 0px; font-weight: 700; overflow-wrap: break-word;&quot;&gt;&lt;span style=&quot;box-sizing: border-box; outline: 0px; margin: 0px; padding: 0px; overflow-wrap: break-word; color: rgb(243, 59, 69);&quot;&gt;解密的时候没有使用数据库，仅仅使用的是secret进行解密（减小服务器资源压力）&lt;/span&gt;&lt;/span&gt;&lt;/li&gt;&lt;li style=&quot;box-sizing: border-box; outline: 0px; margin: 8px 0px 0px 32px; padding: 0px; list-style: disc; overflow-wrap: break-word;&quot;&gt;Jwt使用的secret千万不能丢失&lt;/li&gt;&lt;/ul&gt;" style="shape=note;whiteSpace=wrap;html=1;backgroundOutline=1;darkOpacity=0.05;labelBackgroundColor=none;fontSize=15;" parent="1" vertex="1">
          <mxGeometry x="750" y="10" width="350" height="170" as="geometry" />
        </mxCell>
      </root>
    </mxGraphModel>
  </diagram>
</mxfile>
